<mxfile host="app.diagrams.net" modified="2023-11-29T21:46:57.061Z" agent="Mozilla/5.0 (Windows NT 10.0; Win64; x64) AppleWebKit/537.36 (KHTML, like Gecko) Chrome/119.0.0.0 Safari/537.36" etag="OLdQeWr06h21_cf-86IH" version="22.1.5" type="device">
  <diagram name="Page-1" id="c7558073-3199-34d8-9f00-42111426c3f3">
    <mxGraphModel dx="1750" dy="890" grid="1" gridSize="10" guides="1" tooltips="1" connect="1" arrows="1" fold="1" page="1" pageScale="1" pageWidth="826" pageHeight="1169" background="none" math="0" shadow="0">
      <root>
        <mxCell id="0" />
        <mxCell id="1" parent="0" />
        <mxCell id="ZAenbHetlJiXr0_bfCfJ-96" value="User" style="whiteSpace=wrap;align=center;verticalAlign=middle;fontStyle=1;strokeWidth=3;fillColor=#FFFFCC;fontSize=14;" parent="1" vertex="1">
          <mxGeometry x="70" y="935" width="90" height="60" as="geometry" />
        </mxCell>
        <mxCell id="ZAenbHetlJiXr0_bfCfJ-99" value="&lt;p style=&quot;margin: 4px 0px 0px; text-align: center; font-size: 14px;&quot;&gt;&lt;font style=&quot;font-size: 14px;&quot;&gt;&lt;br&gt;&lt;/font&gt;&lt;/p&gt;&lt;p style=&quot;margin: 4px 0px 0px; text-align: center; font-size: 14px;&quot;&gt;&lt;font style=&quot;font-size: 14px;&quot;&gt;&lt;span style=&quot;background-color: initial;&quot;&gt;User Profile&lt;/span&gt;&lt;br&gt;&lt;/font&gt;&lt;/p&gt;&lt;p style=&quot;margin: 4px 0px 0px; text-align: center; font-size: 14px;&quot;&gt;&lt;font style=&quot;font-size: 14px;&quot;&gt;Creation&lt;/font&gt;&lt;/p&gt;" style="verticalAlign=middle;align=center;overflow=fill;fontSize=12;fontFamily=Helvetica;html=1;rounded=1;fontStyle=1;strokeWidth=3;fillColor=#E6FFCC" parent="1" vertex="1">
          <mxGeometry x="256" y="920" width="110" height="90" as="geometry" />
        </mxCell>
        <mxCell id="ZAenbHetlJiXr0_bfCfJ-100" value="" style="edgeStyle=none;noEdgeStyle=1;strokeColor=#990000;strokeWidth=2;entryX=0;entryY=0.5;entryDx=0;entryDy=0;exitX=1;exitY=0.5;exitDx=0;exitDy=0;" parent="1" source="ZAenbHetlJiXr0_bfCfJ-96" target="ZAenbHetlJiXr0_bfCfJ-99" edge="1">
          <mxGeometry width="100" height="100" relative="1" as="geometry">
            <mxPoint x="180" y="964.5" as="sourcePoint" />
            <mxPoint x="286" y="964.5" as="targetPoint" />
          </mxGeometry>
        </mxCell>
        <mxCell id="ZAenbHetlJiXr0_bfCfJ-101" value="User&lt;br&gt;&amp;nbsp;SignUp" style="text;html=1;align=center;verticalAlign=middle;resizable=0;points=[];autosize=1;strokeColor=none;fillColor=none;" parent="1" vertex="1">
          <mxGeometry x="166" y="923" width="70" height="40" as="geometry" />
        </mxCell>
        <mxCell id="ZAenbHetlJiXr0_bfCfJ-102" value="StreamingÂ &#xa;Service" style="whiteSpace=wrap;align=center;verticalAlign=middle;fontStyle=1;strokeWidth=3;fillColor=#FFFFCC;fontSize=14;" parent="1" vertex="1">
          <mxGeometry x="70" y="1140" width="90" height="60" as="geometry" />
        </mxCell>
        <mxCell id="ZAenbHetlJiXr0_bfCfJ-103" value="&lt;p style=&quot;margin: 4px 0px 0px; text-align: center; font-size: 14px;&quot;&gt;&lt;br&gt;&lt;/p&gt;&lt;p style=&quot;margin: 4px 0px 0px; text-align: center; font-size: 14px;&quot;&gt;&lt;span style=&quot;background-color: initial;&quot;&gt;Profile&lt;/span&gt;&lt;br&gt;&lt;/p&gt;&lt;p style=&quot;margin: 4px 0px 0px; text-align: center; font-size: 14px;&quot;&gt;Registration&lt;/p&gt;" style="verticalAlign=middle;align=center;overflow=fill;fontSize=12;fontFamily=Helvetica;html=1;rounded=1;fontStyle=1;strokeWidth=3;fillColor=#E6FFCC" parent="1" vertex="1">
          <mxGeometry x="460" y="920" width="110" height="90" as="geometry" />
        </mxCell>
        <mxCell id="ZAenbHetlJiXr0_bfCfJ-104" value="" style="edgeStyle=none;noEdgeStyle=1;strokeColor=#990000;strokeWidth=2;exitX=1.007;exitY=0.333;exitDx=0;exitDy=0;entryX=-0.031;entryY=0.336;entryDx=0;entryDy=0;entryPerimeter=0;exitPerimeter=0;" parent="1" source="ZAenbHetlJiXr0_bfCfJ-99" target="ZAenbHetlJiXr0_bfCfJ-103" edge="1">
          <mxGeometry width="100" height="100" relative="1" as="geometry">
            <mxPoint x="417" y="950" as="sourcePoint" />
            <mxPoint x="590" y="950" as="targetPoint" />
          </mxGeometry>
        </mxCell>
        <mxCell id="ZAenbHetlJiXr0_bfCfJ-105" value="" style="edgeStyle=none;noEdgeStyle=1;strokeColor=#990000;strokeWidth=2;entryX=1;entryY=0.5;entryDx=0;entryDy=0;exitX=-0.02;exitY=0.664;exitDx=0;exitDy=0;exitPerimeter=0;" parent="1" source="ZAenbHetlJiXr0_bfCfJ-103" edge="1">
          <mxGeometry width="100" height="100" relative="1" as="geometry">
            <mxPoint x="523.5" y="980" as="sourcePoint" />
            <mxPoint x="366.5" y="980" as="targetPoint" />
          </mxGeometry>
        </mxCell>
        <mxCell id="ZAenbHetlJiXr0_bfCfJ-106" value="Create Profile &amp;amp;&amp;nbsp;&lt;br&gt;Validate" style="text;html=1;align=center;verticalAlign=middle;resizable=0;points=[];autosize=1;strokeColor=none;fillColor=none;" parent="1" vertex="1">
          <mxGeometry x="358" y="910" width="110" height="40" as="geometry" />
        </mxCell>
        <mxCell id="ZAenbHetlJiXr0_bfCfJ-109" value="" style="edgeStyle=none;noEdgeStyle=1;strokeColor=#990000;strokeWidth=2;entryX=0.505;entryY=-0.084;entryDx=0;entryDy=0;entryPerimeter=0;" parent="1" edge="1">
          <mxGeometry width="100" height="100" relative="1" as="geometry">
            <mxPoint x="310.95" y="817.56" as="sourcePoint" />
            <mxPoint x="310.49999999999994" y="920" as="targetPoint" />
          </mxGeometry>
        </mxCell>
        <mxCell id="ZAenbHetlJiXr0_bfCfJ-110" value="User details" style="text;html=1;strokeColor=none;fillColor=none;align=center;verticalAlign=middle;whiteSpace=wrap;rounded=0;" parent="1" vertex="1">
          <mxGeometry x="306" y="860" width="60" height="30" as="geometry" />
        </mxCell>
        <mxCell id="ZAenbHetlJiXr0_bfCfJ-111" value="&lt;p style=&quot;margin: 4px 0px 0px; text-align: center; font-size: 14px;&quot;&gt;&lt;br&gt;&lt;/p&gt;&lt;p style=&quot;margin: 4px 0px 0px; text-align: center; font-size: 14px;&quot;&gt;Search&amp;nbsp;&lt;br&gt;Content&lt;/p&gt;" style="verticalAlign=middle;align=center;overflow=fill;fontSize=12;fontFamily=Helvetica;html=1;rounded=1;fontStyle=1;strokeWidth=3;fillColor=#E6FFCC" parent="1" vertex="1">
          <mxGeometry x="660" y="920" width="110" height="90" as="geometry" />
        </mxCell>
        <mxCell id="ZAenbHetlJiXr0_bfCfJ-112" value="" style="edgeStyle=none;noEdgeStyle=1;strokeColor=#990000;strokeWidth=2;entryX=0;entryY=0.25;entryDx=0;entryDy=0;exitX=1;exitY=0.25;exitDx=0;exitDy=0;" parent="1" edge="1">
          <mxGeometry width="100" height="100" relative="1" as="geometry">
            <mxPoint x="570" y="962" as="sourcePoint" />
            <mxPoint x="660" y="962" as="targetPoint" />
          </mxGeometry>
        </mxCell>
        <mxCell id="ZAenbHetlJiXr0_bfCfJ-113" value="search" style="text;html=1;align=center;verticalAlign=middle;resizable=0;points=[];autosize=1;strokeColor=none;fillColor=none;" parent="1" vertex="1">
          <mxGeometry x="585" y="933" width="60" height="30" as="geometry" />
        </mxCell>
        <mxCell id="ZAenbHetlJiXr0_bfCfJ-114" value="&lt;p style=&quot;margin: 4px 0px 0px; text-align: center; font-size: 14px;&quot;&gt;&lt;br&gt;Display &lt;br&gt;streaming&amp;nbsp;&lt;br&gt;Platforms&lt;/p&gt;" style="verticalAlign=middle;align=center;overflow=fill;fontSize=12;fontFamily=Helvetica;html=1;rounded=1;fontStyle=1;strokeWidth=3;fillColor=#E6FFCC" parent="1" vertex="1">
          <mxGeometry x="270" y="1125" width="110" height="90" as="geometry" />
        </mxCell>
        <mxCell id="ZAenbHetlJiXr0_bfCfJ-115" value="" style="edgeStyle=none;noEdgeStyle=1;strokeColor=#990000;strokeWidth=2;entryX=0;entryY=0;entryDx=0;entryDy=0;exitX=0.862;exitY=0.93;exitDx=0;exitDy=0;exitPerimeter=0;" parent="1" source="ZAenbHetlJiXr0_bfCfJ-96" target="ZAenbHetlJiXr0_bfCfJ-114" edge="1">
          <mxGeometry width="100" height="100" relative="1" as="geometry">
            <mxPoint x="160" y="1000" as="sourcePoint" />
            <mxPoint x="134.25" y="1040" as="targetPoint" />
          </mxGeometry>
        </mxCell>
        <mxCell id="ZAenbHetlJiXr0_bfCfJ-116" value="" style="edgeStyle=none;noEdgeStyle=1;strokeColor=#990000;strokeWidth=2;exitX=1;exitY=0.25;exitDx=0;exitDy=0;entryX=-0.007;entryY=0.358;entryDx=0;entryDy=0;entryPerimeter=0;" parent="1" source="ZAenbHetlJiXr0_bfCfJ-102" target="ZAenbHetlJiXr0_bfCfJ-114" edge="1">
          <mxGeometry width="100" height="100" relative="1" as="geometry">
            <mxPoint x="162" y="1016" as="sourcePoint" />
            <mxPoint x="260" y="1160" as="targetPoint" />
          </mxGeometry>
        </mxCell>
        <mxCell id="ZAenbHetlJiXr0_bfCfJ-117" value="User select" style="text;html=1;align=center;verticalAlign=middle;resizable=0;points=[];autosize=1;strokeColor=none;fillColor=none;" parent="1" vertex="1">
          <mxGeometry x="203.5" y="1050" width="80" height="30" as="geometry" />
        </mxCell>
        <mxCell id="ZAenbHetlJiXr0_bfCfJ-119" value="&lt;p style=&quot;margin: 4px 0px 0px; text-align: center; font-size: 14px;&quot;&gt;&lt;br&gt;Access&amp;nbsp;&lt;br&gt;Content&lt;/p&gt;" style="verticalAlign=middle;align=center;overflow=fill;fontSize=12;fontFamily=Helvetica;html=1;rounded=1;fontStyle=1;strokeWidth=3;fillColor=#E6FFCC" parent="1" vertex="1">
          <mxGeometry x="475" y="1125" width="110" height="90" as="geometry" />
        </mxCell>
        <mxCell id="ZAenbHetlJiXr0_bfCfJ-120" value="" style="edgeStyle=none;noEdgeStyle=1;strokeColor=#990000;strokeWidth=2;exitX=1;exitY=0.25;exitDx=0;exitDy=0;" parent="1" edge="1">
          <mxGeometry width="100" height="100" relative="1" as="geometry">
            <mxPoint x="381" y="1160" as="sourcePoint" />
            <mxPoint x="470" y="1160" as="targetPoint" />
          </mxGeometry>
        </mxCell>
        <mxCell id="ZAenbHetlJiXr0_bfCfJ-121" value="Fetch the&amp;nbsp;&lt;br&gt;Content" style="text;html=1;align=center;verticalAlign=middle;resizable=0;points=[];autosize=1;strokeColor=none;fillColor=none;" parent="1" vertex="1">
          <mxGeometry x="385" y="1113" width="80" height="40" as="geometry" />
        </mxCell>
        <mxCell id="ZAenbHetlJiXr0_bfCfJ-123" value="" style="edgeStyle=elbowEdgeStyle;elbow=vertical;endArrow=classic;html=1;rounded=0;endSize=8;startSize=8;entryX=0.5;entryY=0;entryDx=0;entryDy=0;exitX=0.025;exitY=0.902;exitDx=0;exitDy=0;exitPerimeter=0;fontStyle=1;jumpSize=10;fillColor=#a0522d;strokeColor=#990000;strokeWidth=2;" parent="1" source="ZAenbHetlJiXr0_bfCfJ-111" edge="1">
          <mxGeometry width="50" height="50" relative="1" as="geometry">
            <mxPoint x="725" y="1007.5" as="sourcePoint" />
            <mxPoint x="540" y="1122.5" as="targetPoint" />
          </mxGeometry>
        </mxCell>
        <mxCell id="ZAenbHetlJiXr0_bfCfJ-124" value="&lt;p style=&quot;margin: 4px 0px 0px; text-align: center; font-size: 14px;&quot;&gt;&lt;br&gt;Add to Watch &lt;br&gt;list&lt;/p&gt;" style="verticalAlign=middle;align=center;overflow=fill;fontSize=12;fontFamily=Helvetica;html=1;rounded=1;fontStyle=1;strokeWidth=3;fillColor=#E6FFCC" parent="1" vertex="1">
          <mxGeometry x="691" y="1125" width="110" height="90" as="geometry" />
        </mxCell>
        <mxCell id="ZAenbHetlJiXr0_bfCfJ-126" value="" style="edgeStyle=none;noEdgeStyle=1;strokeColor=#990000;strokeWidth=2;exitX=1;exitY=0.25;exitDx=0;exitDy=0;entryX=-0.007;entryY=0.358;entryDx=0;entryDy=0;entryPerimeter=0;" parent="1" edge="1">
          <mxGeometry width="100" height="100" relative="1" as="geometry">
            <mxPoint x="585" y="1153" as="sourcePoint" />
            <mxPoint x="694" y="1155" as="targetPoint" />
          </mxGeometry>
        </mxCell>
        <mxCell id="ZAenbHetlJiXr0_bfCfJ-127" value="Database" style="whiteSpace=wrap;align=center;verticalAlign=middle;fontStyle=1;strokeWidth=3;fillColor=#FFFFCC;fontSize=14;" parent="1" vertex="1">
          <mxGeometry x="701" y="1480" width="90" height="60" as="geometry" />
        </mxCell>
        <mxCell id="ZAenbHetlJiXr0_bfCfJ-128" value="" style="edgeStyle=none;noEdgeStyle=1;strokeColor=#990000;strokeWidth=2;exitX=0.5;exitY=1;exitDx=0;exitDy=0;entryX=0.5;entryY=0;entryDx=0;entryDy=0;" parent="1" source="ZAenbHetlJiXr0_bfCfJ-124" target="ZAenbHetlJiXr0_bfCfJ-129" edge="1">
          <mxGeometry width="100" height="100" relative="1" as="geometry">
            <mxPoint x="645" y="1260" as="sourcePoint" />
            <mxPoint x="746" y="1262" as="targetPoint" />
          </mxGeometry>
        </mxCell>
        <mxCell id="ZAenbHetlJiXr0_bfCfJ-129" value="&lt;p style=&quot;margin: 4px 0px 0px; text-align: center; font-size: 14px;&quot;&gt;&lt;br&gt;&lt;/p&gt;&lt;p style=&quot;margin: 4px 0px 0px; text-align: center; font-size: 14px;&quot;&gt;Add to &lt;br&gt;database&lt;/p&gt;" style="verticalAlign=middle;align=center;overflow=fill;fontSize=12;fontFamily=Helvetica;html=1;rounded=1;fontStyle=1;strokeWidth=3;fillColor=#E6FFCC" parent="1" vertex="1">
          <mxGeometry x="691" y="1300" width="110" height="90" as="geometry" />
        </mxCell>
        <mxCell id="ZAenbHetlJiXr0_bfCfJ-130" value="Update the User&#39;s &lt;br&gt;Watchlist" style="text;html=1;align=center;verticalAlign=middle;resizable=0;points=[];autosize=1;strokeColor=none;fillColor=none;" parent="1" vertex="1">
          <mxGeometry x="740" y="1240" width="120" height="40" as="geometry" />
        </mxCell>
        <mxCell id="ZAenbHetlJiXr0_bfCfJ-131" value="" style="edgeStyle=none;noEdgeStyle=1;strokeColor=#990000;strokeWidth=2;exitX=0.5;exitY=1;exitDx=0;exitDy=0;entryX=0.5;entryY=0;entryDx=0;entryDy=0;" parent="1" source="ZAenbHetlJiXr0_bfCfJ-129" target="ZAenbHetlJiXr0_bfCfJ-127" edge="1">
          <mxGeometry width="100" height="100" relative="1" as="geometry">
            <mxPoint x="740" y="1430" as="sourcePoint" />
            <mxPoint x="849" y="1432" as="targetPoint" />
          </mxGeometry>
        </mxCell>
        <mxCell id="ZAenbHetlJiXr0_bfCfJ-132" value="&lt;p style=&quot;margin: 4px 0px 0px; text-align: center; font-size: 14px;&quot;&gt;&lt;br&gt;&lt;/p&gt;&lt;p style=&quot;margin: 4px 0px 0px; text-align: center; font-size: 14px;&quot;&gt;Content &lt;br&gt;History&lt;/p&gt;" style="verticalAlign=middle;align=center;overflow=fill;fontSize=12;fontFamily=Helvetica;html=1;rounded=1;fontStyle=1;strokeWidth=3;fillColor=#E6FFCC" parent="1" vertex="1">
          <mxGeometry x="481" y="1290" width="110" height="90" as="geometry" />
        </mxCell>
        <mxCell id="ZAenbHetlJiXr0_bfCfJ-133" value="" style="edgeStyle=none;noEdgeStyle=1;strokeColor=#990000;strokeWidth=2;exitX=0.5;exitY=1;exitDx=0;exitDy=0;" parent="1" source="ZAenbHetlJiXr0_bfCfJ-119" edge="1">
          <mxGeometry width="100" height="100" relative="1" as="geometry">
            <mxPoint x="595" y="1163" as="sourcePoint" />
            <mxPoint x="530" y="1290" as="targetPoint" />
          </mxGeometry>
        </mxCell>
        <mxCell id="ZAenbHetlJiXr0_bfCfJ-134" value="" style="edgeStyle=none;noEdgeStyle=1;strokeColor=#990000;strokeWidth=2;exitX=1;exitY=1;exitDx=0;exitDy=0;entryX=0;entryY=0;entryDx=0;entryDy=0;" parent="1" source="ZAenbHetlJiXr0_bfCfJ-132" target="ZAenbHetlJiXr0_bfCfJ-127" edge="1">
          <mxGeometry width="100" height="100" relative="1" as="geometry">
            <mxPoint x="756" y="1400" as="sourcePoint" />
            <mxPoint x="756" y="1490" as="targetPoint" />
          </mxGeometry>
        </mxCell>
        <mxCell id="ZAenbHetlJiXr0_bfCfJ-135" value="&lt;p style=&quot;margin: 4px 0px 0px; text-align: center; font-size: 14px;&quot;&gt;&lt;br&gt;&lt;/p&gt;&lt;p style=&quot;margin: 4px 0px 0px; text-align: center; font-size: 14px;&quot;&gt;Content&amp;nbsp;&lt;/p&gt;&lt;p style=&quot;margin: 4px 0px 0px; text-align: center; font-size: 14px;&quot;&gt;Download&lt;/p&gt;" style="verticalAlign=middle;align=center;overflow=fill;fontSize=12;fontFamily=Helvetica;html=1;rounded=1;fontStyle=1;strokeWidth=3;fillColor=#E6FFCC" parent="1" vertex="1">
          <mxGeometry x="850" y="920" width="110" height="90" as="geometry" />
        </mxCell>
        <mxCell id="ZAenbHetlJiXr0_bfCfJ-136" value="" style="edgeStyle=none;noEdgeStyle=1;strokeColor=#990000;strokeWidth=2;exitX=1;exitY=0.25;exitDx=0;exitDy=0;" parent="1" edge="1">
          <mxGeometry width="100" height="100" relative="1" as="geometry">
            <mxPoint x="770" y="962.33" as="sourcePoint" />
            <mxPoint x="850" y="961.33" as="targetPoint" />
          </mxGeometry>
        </mxCell>
        <mxCell id="ZAenbHetlJiXr0_bfCfJ-137" value="" style="edgeStyle=none;noEdgeStyle=1;strokeColor=#990000;strokeWidth=2;" parent="1" edge="1">
          <mxGeometry width="100" height="100" relative="1" as="geometry">
            <mxPoint x="538" y="1380" as="sourcePoint" />
            <mxPoint x="538" y="1490" as="targetPoint" />
          </mxGeometry>
        </mxCell>
        <mxCell id="ZAenbHetlJiXr0_bfCfJ-138" value="Recommend&amp;nbsp;&lt;br&gt;content" style="text;html=1;align=center;verticalAlign=middle;resizable=0;points=[];autosize=1;strokeColor=none;fillColor=none;" parent="1" vertex="1">
          <mxGeometry x="455" y="1410" width="90" height="40" as="geometry" />
        </mxCell>
        <mxCell id="8xXlafjs3F2TyAp5sVbd-1" value="" style="edgeStyle=none;noEdgeStyle=1;strokeColor=#990000;strokeWidth=2;exitX=1;exitY=0.25;exitDx=0;exitDy=0;" edge="1" parent="1">
          <mxGeometry width="100" height="100" relative="1" as="geometry">
            <mxPoint x="960" y="965.17" as="sourcePoint" />
            <mxPoint x="1040" y="964.17" as="targetPoint" />
          </mxGeometry>
        </mxCell>
        <mxCell id="8xXlafjs3F2TyAp5sVbd-3" value="" style="edgeStyle=none;noEdgeStyle=1;strokeColor=#990000;strokeWidth=2;exitX=1;exitY=0.25;exitDx=0;exitDy=0;entryX=0.5;entryY=0;entryDx=0;entryDy=0;" edge="1" parent="1" target="8xXlafjs3F2TyAp5sVbd-8">
          <mxGeometry width="100" height="100" relative="1" as="geometry">
            <mxPoint x="1094.17" y="1010" as="sourcePoint" />
            <mxPoint x="1094.17" y="1069" as="targetPoint" />
          </mxGeometry>
        </mxCell>
        <mxCell id="8xXlafjs3F2TyAp5sVbd-6" value="&lt;p style=&quot;margin: 4px 0px 0px; text-align: center; font-size: 14px;&quot;&gt;&lt;br&gt;&lt;/p&gt;&lt;p style=&quot;margin: 4px 0px 0px; text-align: center; font-size: 14px;&quot;&gt;CDN&amp;nbsp;&lt;/p&gt;&lt;p style=&quot;margin: 4px 0px 0px; text-align: center; font-size: 14px;&quot;&gt;Integration&lt;/p&gt;" style="verticalAlign=middle;align=center;overflow=fill;fontSize=12;fontFamily=Helvetica;html=1;rounded=1;fontStyle=1;strokeWidth=3;fillColor=#E6FFCC" vertex="1" parent="1">
          <mxGeometry x="1040" y="923" width="110" height="90" as="geometry" />
        </mxCell>
        <mxCell id="8xXlafjs3F2TyAp5sVbd-8" value="&lt;p style=&quot;margin: 4px 0px 0px; text-align: center; font-size: 14px;&quot;&gt;&lt;br&gt;&lt;/p&gt;&lt;p style=&quot;margin: 4px 0px 0px; text-align: center; font-size: 14px;&quot;&gt;CDN&amp;nbsp;&lt;/p&gt;&lt;p style=&quot;margin: 4px 0px 0px; text-align: center; font-size: 14px;&quot;&gt;Servers&lt;/p&gt;" style="verticalAlign=middle;align=center;overflow=fill;fontSize=12;fontFamily=Helvetica;html=1;rounded=1;fontStyle=1;strokeWidth=3;fillColor=#E6FFCC" vertex="1" parent="1">
          <mxGeometry x="1040" y="1079" width="110" height="90" as="geometry" />
        </mxCell>
      </root>
    </mxGraphModel>
  </diagram>
</mxfile>
